# AST/ASF file generated using VICON BodyLanguage
# -----------------------------------------------
:version 1.10
:name VICON
:units
  mass 1.0
  length 0.45
  angle deg
:documentation
   .ast/.asf automatically generated from VICON data using
   VICON BodyBuilder and BodyLanguage model FoxedUp or BRILLIANT.MOD
:root
   order TX TY TZ RX RY RZ
   axis XYZ
   position 0 0 0  
   orientation 0 0 0 
:bonedata
  begin
     id 1 
     name lhipjoint
     direction 0.596438 -0.722117 0.35044 
     length 2.43043 
     axis 0 0 0  XYZ
  end
  begin
     id 2 
     name lfemur
     direction 0.34202 -0.939693 0  
     length 7.0339  
     axis 0 0 20  XYZ
    dof rx ry rz
    limits (-160.0 20.0)
           (-70.0 70.0)
           (-60.0 70.0)
  end
  begin
     id 3 
     name ltibia
     direction 0.34202 -0.939693 0   
     length 7.56602   
     axis 0 0 20   XYZ
    dof rx
    limits (-10.0 170.0)
  end
  begin
     id 4 
     name lfoot
     direction 0.0985677 -0.270812 0.957572   
     length 1.85172   
     axis -90 7.62852e-016 20   XYZ
    dof rx rz
    limits (-45.0 90.0)
           (-70.0 20.0)
  end
  begin
     id 5 
     name ltoes
     direction 1.53534e-011 -4.21843e-011 1   
     length 0.929904   
     axis -90 7.62852e-016 20   XYZ
    dof rx
    limits (-90.0 20.0)
  end
  begin
     id 6 
     name rhipjoint
     direction -0.585088 -0.729594 0.354068   
     length 2.40552  
     axis 0 0 0  XYZ 
  end
  begin
     id 7 
     name rfemur
     direction -0.34202 -0.939693 0   
     length 7.12573   
     axis 0 0 -20   XYZ
    dof rx ry rz
    limits (-160.0 20.0)
           (-70.0 70.0)
           (-70.0 60.0)
  end
  begin
     id 8 
     name rtibia
     direction -0.34202 -0.939693 0   
     length 7.35777   
     axis 0 0 -20   XYZ
    dof rx
    limits (-10.0 170.0)
 end
 begin
     id 9 
     name rfoot
     direction -0.120907 -0.33219 0.935431   
     length 2.0994  
     axis -90 -7.62852e-016 -20   XYZ
    dof rx rz
    limits (-45.0 90.0)
           (-20.0 70.0)
  end
  begin
     id 10 
     name rtoes
     direction -1.53577e-011 -4.21787e-011 1   
     length 1.04244   
     axis -90 -7.62852e-016 -20   XYZ
    dof rx
    limits (-90.0 20.0)
  end
  begin
     id 11 
     name lowerback
     direction 0.00268363 0.993603 -0.112896   
     length 2.15839   
     axis 0 0 0   XYZ
    dof rx ry rz
    limits (-20.0 45.0)
           (-30.0 30.0)
           (-30.0 30.0)
  end
  begin
     id 12 
     name upperback
     direction 0.0272563 0.999411 -0.0208618   
     length 2.16443   
     axis 0 0 0   XYZ
    dof rx ry rz
    limits (-20.0 45.0)
           (-30.0 30.0)
           (-30.0 30.0)
  end
  begin
     id 13 
     name thorax
     direction 0.0254655 0.999174 0.0316806   
     length 2.19003   
     axis 0 0 0   XYZ
    dof rx ry rz
    limits (-20.0 45.0)
           (-30.0 30.0)
           (-30.0 30.0)
  end
  begin
     id 14 
     name lowerneck
     direction -0.0102178 0.988048 0.15381   
     length 1.61507   
     axis 0 0 0   XYZ
    dof rx ry rz
    limits (-20.0 45.0)
           (-30.0 30.0)
           (-30.0 30.0)
  end
  begin
     id 15 
     name upperneck
     direction -0.0061965 0.994088 -0.108398   
     length 1.64042   
     axis 0 0 0   XYZ
    dof rx ry rz
    limits (-20.0 45.0)
           (-30.0 30.0)
           (-30.0 30.0)
  end
  begin
     id 16
     name head
     direction -0.00151929 0.998591 -0.0530385  
     length 1.64343  
     axis 0 0 0   XYZ
    dof rx ry rz
    limits (-20.0 45.0)
           (-30.0 30.0)
           (-30.0 30.0)
  end
  begin
     id 17 
     name lclavicle
     direction 0.948974 0.284245 -0.136574  
     length 3.3483  
     axis 0 0 0   XYZ
    dof ry rz
    limits (-20.0 10.0)
           (0.0 20.0)
  end
  begin
     id 18 
     name lhumerus
     direction 1 -4.48961e-011 1.68576e-027   
     length 4.93485   
     axis -180 -30 -90   XYZ
    dof rx ry rz
    limits (-60.0 90.0)
           (-90.0 90.0)
           (-90.0 90.0)
  end
  begin
     id 19
     name lradius
     direction 1 -4.48965e-011 -2.46405e-027   
     length 3.41719   
     axis -180 -30 -90   XYZ
    dof rx
    limits (-10.0 170.0)
  end
  begin
     id 20
     name lwrist
     direction 1 -4.48968e-011 -8.00486e-028   
     length 1.7086   
     axis 3.27501e-015 90 90   XYZ
    dof ry
    limits (-180.0 0.0)
 end
  begin
     id 21 
     name lhand
     direction 1 -4.48977e-011 -1.60161e-027   
     length 0.6241   
     axis 1.02148e-015 90 90   XYZ
    dof rx rz
    limits (-90.0 90.0)
           (-45.0 45.0)
  end
  begin
     id 22 
     name lfingers
     direction 1 -4.49049e-011 -3.21275e-027   
     length 0.503166   
     axis 2.04295e-015 90 90   XYZ
    dof rx
    limits (0.0 90.0)
  end
  begin
     id 23
     name lthumb
     direction 0.707107 -6.34975e-011 0.707107   
     length 0.722448   
     axis -90 45 -1.62303e-014   XYZ
    dof rx rz
    limits (-45.0 45.0)
           (-45.0 45.0)
  end
  begin
     id 24 
     name rclavicle
     direction -0.904485 0.355099 -0.236246   
     length 3.18329  
     axis 0 0 0   XYZ 
    dof ry rz
    limits (-10.0 20.0)
           (-20.0 0.0)
  end
  begin
     id 25 
     name rhumerus
     direction -1 -4.48953e-011 1.32816e-027  
     length 5.22034   
     axis -180 30 90   XYZ
    dof rx ry rz
    limits (-90.0 60.0)
           (-90.0 90.0)
           (-90.0 90.0)
  end
  begin
     id 26 
     name rradius
     direction -1 -4.48965e-011 -3.93727e-027   
     length 3.41809   
     axis -180 30 90   XYZ
    dof rx
    limits (-10.0 170.0)
  end
  begin
     id 27 
     name rwrist
     direction -1 -4.48962e-011 -8.003e-028   
     length 1.70904   
     axis 3.27501e-015 -90 -90   XYZ
    dof ry
    limits (-180.0 0.0)
  end
  begin
     id 28
     name rhand
     direction -1 -4.49008e-011 -1.60365e-027   
     length 0.77534   
     axis 1.02148e-015 -90 -90   XYZ
    dof rx rz
    limits (-90.0 90.0)
           (-45.0 45.0)
  end
  begin
     id 29
     name rfingers
     direction -1 -4.49001e-011 -3.2064e-027   
     length 0.625099   
     axis 2.04295e-015 -90 -90   XYZ
    dof rx
    limits (0.0 90.0)
  end
  begin
     id 30
     name rthumb
     direction -0.707107 -6.34989e-011 0.707107   
     length 0.897521   
     axis -90 -45 1.62303e-014   XYZ
    dof rx rz
    limits (-45.0 45.0)
           (-45.0 45.0)
  end
:hierarchy
  begin
    root lhipjoint rhipjoint lowerback
    lhipjoint lfemur
    lfemur ltibia
    ltibia lfoot
    lfoot ltoes
    rhipjoint rfemur
    rfemur rtibia
    rtibia rfoot
    rfoot rtoes
    lowerback upperback
    upperback thorax
    thorax lowerneck lclavicle rclavicle
    lowerneck upperneck
    upperneck head
    lclavicle lhumerus
    lhumerus lradius
    lradius lwrist
    lwrist lhand lthumb
    lhand lfingers
    rclavicle rhumerus
    rhumerus rradius
    rradius rwrist
    rwrist rhand rthumb
    rhand rfingers
  end

#!OML:ASF \\sashay\E\Suitcase\Project 1\Capture day 1\Session 1\Male1.ASF
:FULLY-SPECIFIED
:DEGREES
342
root 0.0952019 17.3615 -30.8016 7.57554 -1.93669 -4.38722
lowerback 9.0364 2.12281 3.55271
upperback -0.0964925 3.34144 2.70259
thorax -5.13157 1.59078 0.379186
lowerneck -17.8004 -2.19607 -4.28679
upperneck 9.38172 -1.48883 -3.13144
head 5.74362 -1.13745 -0.46
rclavicle 1.56046e-014 1.59028e-015
rhumerus -39.8921 -40.6171 -54.4899
rradius 9.11666
rwrist 14.1762
rhand -22.8507 15.1936
rfingers 7.12502
rthumb 3.58733 -14.7559
lclavicle 1.56046e-014 1.59028e-015
lhumerus -43.2906 13.3157 77.3484
lradius 24.1726
lwrist -11.4471
lhand -3.30239 40.5695
lfingers 7.12502
lthumb 22.4237 69.2878
rfemur 17.2839 4.00483 29.5945
rtibia -9.22361e-014
rfoot -7.12804 -14.0657
rtoes 2.12272
lfemur -33.5791 -2.83198 -15.6024
ltibia 24.5757
lfoot -10.7477 -2.10002
ltoes 2.05608
343
root 0.114344 17.3668 -30.6838 7.66755 -1.96605 -4.30595
lowerback 8.77075 2.38271 3.33271
upperback -0.419507 3.65416 2.48189
thorax -5.31439 1.74356 0.236287
lowerneck -17.0248 -2.55334 -3.72759
upperneck 9.26417 -2.11569 -3.38486
head 5.57352 -1.43231 -0.679462
rclavicle 1.94809e-014 -1.47101e-014
rhumerus -40.8043 -40.9721 -53.8654
rradius 9.13773
rwrist 13.6703
rhand -23.054 15.696
rfingers 7.12502
rthumb 3.39093 -14.2567
lclavicle 1.94809e-014 -1.47101e-014
lhumerus -43.6821 12.3694 77.3549
lradius 24.1003
lwrist -11.4021
lhand -3.74743 39.0774
lfingers 7.12502
lthumb 21.9965 67.8466
rfemur 17.632 4.06775 29.4743
rtibia -4.45278e-014
rfoot -6.60194 -14.1208
rtoes 1.94806
lfemur -33.3622 -2.7099 -15.8683
ltibia 24.6644
lfoot -9.08871 -3.3017
ltoes 2.53402
344
root 0.14018 17.3796 -30.5499 7.65368 -1.86471 -4.00327
lowerback 8.47861 2.30476 3.06899
upperback -0.485513 3.49928 2.24797
thorax -5.22125 1.67288 0.171175
lowerneck -17.4089 -2.42252 -3.73891
upperneck 9.48035 -1.92726 -3.24169
head 5.70567 -1.33753 -0.621416
rclavicle 2.37548e-014 7.95139e-016
rhumerus -40.3415 -41.0045 -54.3715
rradius 9.00806
rwrist 13.2041
rhand -23.077 15.4952
rfingers 7.12502
rthumb 3.36872 -14.4579
lclavicle 2.37548e-014 7.95139e-016
lhumerus -43.8297 12.2691 77.1737
lradius 24.177
lwrist -11.3488
lhand -3.69888 39.2362
lfingers 7.12502
lthumb 22.0431 68
rfemur 17.9539 3.97433 29.0625
rtibia -5.40694e-014
rfoot -5.71752 -14.2297
rtoes -0.48569
lfemur -33.0421 -2.71148 -16.4058
ltibia 24.8762
lfoot -8.03374 -4.81797
ltoes 12.5076
345
root 0.160436 17.3744 -30.4252 7.82198 -1.81985 -4.016
lowerback 7.99747 2.27381 3.08772
upperback -0.531316 3.42814 2.03965
thorax -4.98424 1.63846 -0.0265524
lowerneck -17.8865 -2.37214 -3.56449
upperneck 9.72803 -1.87526 -3.17693
head 5.86023 -1.3092 -0.632199
rclavicle -1.25234e-014 -1.27222e-014
rhumerus -39.9724 -41.1254 -54.8663
rradius 8.89642
rwrist 12.8501
rhand -22.7336 16.3009
rfingers 7.12502
rthumb 3.70034 -13.6468
lclavicle -1.25234e-014 -1.27222e-014
lhumerus -43.6103 12.8391 76.5024
lradius 23.9249
lwrist -11.9634
lhand -3.68761 39.9435
lfingers 7.12502
lthumb 22.0539 68.706
rfemur 18.1945 3.99386 29.0091
rtibia 6.04305e-014
rfoot -4.98397 -14.2002
rtoes -1.22541
lfemur -33.1 -2.54548 -16.6297
ltibia 24.9034
lfoot -6.36076 -5.89152
ltoes 18.4125
346
root 0.177351 17.4032 -30.3006 7.57429 -1.89637 -3.7964
lowerback 8.06316 2.26135 2.64247
upperback -0.574757 3.3714 1.99478
thorax -5.09023 1.6202 0.177735
lowerneck -17.9546 -2.28432 -3.88018
upperneck 9.88157 -1.69337 -3.02093
head 5.92501 -1.22433 -0.516026
rclavicle -3.12092e-014 -3.97569e-015
rhumerus -39.71 -40.936 -55.0964
rradius 9.03166
rwrist 12.4729
rhand -22.5291 16.0044
rfingers 7.12502
rthumb 3.89789 -13.9397
lclavicle -3.12092e-014 -3.97569e-015
lhumerus -43.702 13.6888 75.9945
lradius 23.7166
lwrist -12.5647
lhand -3.43569 39.6409
lfingers 7.12502
lthumb 22.2958 68.3746
rfemur 16.8357 4.02786 28.7115
rtibia 3.78207
rfoot -6.12139 -14.0165
rtoes 0.217422
lfemur -32.4229 -2.20392 -17.1133
ltibia 25.026
lfoot -6.52397 -6.34695
ltoes 18.955
347
root 0.206058 17.401 -30.1644 7.53154 -1.82149 -3.40732
lowerback 7.60322 2.2546 2.23184
upperback -0.557784 3.29528 1.78888
thorax -4.82382 1.5949 0.222332
lowerneck -18.2997 -2.30051 -3.76563
upperneck 10.2059 -1.71007 -3.03893
head 6.08367 -1.23873 -0.549042
rclavicle 5.26779e-015 7.55382e-015
rhumerus -39.4979 -40.9864 -55.2921
rradius 9.16308
rwrist 12.1015
rhand -22.8352 16.1268
rfingers 7.12502
rthumb 3.6022 -13.8225
lclavicle 5.26779e-015 7.55382e-015
lhumerus -43.6517 13.834 75.7885
lradius 23.5932
lwrist -12.6687
lhand -3.53549 39.5778
lfingers 7.12502
lthumb 22.2 68.323
rfemur 16.0155 3.93213 28.2306
rtibia 6.32552
rfoot -6.51484 -14.3783
rtoes 0.0344071
lfemur -32.0276 -2.15372 -17.8519
ltibia 24.9413
lfoot -6.75429 -5.55655
ltoes 14.8539
348
root 0.225237 17.4105 -30.0364 7.50493 -1.81065 -2.98956
lowerback 7.32807 2.24565 1.68718
upperback -0.581374 3.21826 1.61571
thorax -4.71312 1.57014 0.366662
lowerneck -18.2533 -2.43168 -4.21351
upperneck 10.1465 -1.85538 -2.5158
head 6.06574 -1.2818 -0.324114
rclavicle 1.10822e-014 1.70955e-014
rhumerus -38.8803 -41.0899 -55.7315
rradius 8.81609
rwrist 12.0169
rhand -22.5415 17.0172
rfingers 7.12502
rthumb 3.88591 -12.9271
lclavicle 1.10822e-014 1.70955e-014
lhumerus -43.6568 13.8344 75.6963
lradius 23.7453
lwrist -12.3042
lhand -3.27997 39.403
lfingers 7.12502
lthumb 22.4452 68.1188
rfemur 14.8591 3.89534 27.7002
rtibia 9.32758
rfoot -6.71317 -14.1715
rtoes 0.0467564
lfemur -31.511 -2.22031 -18.429
ltibia 24.9755
lfoot -7.00269 -4.96823
ltoes 11.4666
349
root 0.255028 17.4389 -29.905 7.37588 -1.47973 -2.66279
lowerback 7.25235 2.19703 1.39733
upperback -0.656742 3.11956 1.43653
thorax -4.75426 1.5261 0.355429
lowerneck -18.7652 -2.48686 -3.84044
upperneck 10.6516 -1.90044 -3.03518
head 6.30417 -1.3462 -0.566592
rclavicle -9.88954e-015 -1.23246e-014
rhumerus -38.5413 -41.3181 -55.8932
rradius 8.52606
rwrist 11.0887
rhand -21.9838 17.0781
rfingers 7.12502
rthumb 4.42444 -12.8557
lclavicle -9.88954e-015 -1.23246e-014
lhumerus -43.326 14.3461 75.297
lradius 23.2443
lwrist -13.3421
lhand -3.61002 39.5798
lfingers 7.12502
lthumb 22.1284 68.3334
rfemur 13.8222 3.54876 27.2495
rtibia 12.2388
rfoot -7.09749 -14.0844
rtoes -0.630578
lfemur -30.7587 -2.19434 -19.0438
ltibia 24.7612
lfoot -7.39172 -5.52261
ltoes 13.8684
350
root 0.278532 17.4256 -29.784 7.22421 -1.19531 -2.18737
lowerback 7.2519 2.38251 0.968526
upperback -1.03434 3.31917 1.06596
thorax -5.14985 1.62802 0.179343
lowerneck -18.0513 -2.69137 -3.65444
upperneck 11.0913 -2.29045 -2.75783
head 6.32985 -1.50648 -0.5426
rclavicle 3.27001e-014 7.95139e-015
rhumerus -40.3096 -41.4722 -54.6777
rradius 9.33255
rwrist 10.9727
rhand -21.1014 17.7616
rfingers 7.12502
rthumb 5.27642 -12.1527
lclavicle 3.27001e-014 7.95139e-015
lhumerus -43.5548 13.417 75.1659
lradius 23.1634
lwrist -13.0817
lhand -3.33014 39.7788
lfingers 7.12502
lthumb 22.3971 68.5004
rfemur 13.0153 2.93167 26.5852
rtibia 14.8437
rfoot -6.99931 -13.8315
rtoes -1.11669
lfemur -30.2825 -1.65257 -19.9624
ltibia 24.7856
lfoot -7.34964 -6.87177
ltoes 14.0773
351
root 0.305064 17.4378 -29.6486 6.8262 -0.915537 -1.6731
lowerback 7.2205 2.08801 0.415394
upperback -0.741412 2.86918 1.02084
thorax -4.85086 1.42202 0.501191
lowerneck -19.1354 -2.52817 -4.09143
upperneck 11.6199 -1.92383 -2.49002
head 6.6857 -1.3422 -0.366928
rclavicle -2.31087e-014 3.57812e-015
rhumerus -38.9582 -41.195 -55.6653
rradius 9.35282
rwrist 10.4658
rhand -21.1473 17.1379
rfingers 7.12502
rthumb 5.23208 -12.7775
lclavicle -2.31087e-014 3.57812e-015
lhumerus -43.1926 15.2059 74.4211
lradius 22.7422
lwrist -13.9025
lhand -3.1305 38.8285
lfingers 7.12502
lthumb 22.5887 67.5269
rfemur 12.4263 2.52037 25.9163
rtibia 17.393
rfoot -6.52314 -13.794
rtoes -3.14971
lfemur -29.23 -1.79807 -20.7064
ltibia 24.6183
lfoot -7.82713 -7.51391
ltoes 15.7256
352
root 0.324381 17.4438 -29.5332 6.69232 -0.686045 -1.55792
lowerback 7.11344 2.05005 0.196993
upperback -0.769998 2.79582 0.95522
thorax -4.82668 1.39093 0.567118
lowerneck -18.8875 -2.56221 -4.19843
upperneck 11.2059 -1.97187 -2.46701
head 6.51225 -1.3584 -0.34076
rclavicle 1.61513e-015 -2.18663e-015
rhumerus -38.7016 -41.2589 -55.7821
rradius 9.37593
rwrist 9.88019
rhand -20.8454 17.4605
rfingers 7.12502
rthumb 5.52358 -12.4475
lclavicle 1.61513e-015 -2.18663e-015
lhumerus -43.0789 14.4489 74.9294
lradius 23.2647
lwrist -13.1461
lhand -2.69295 40.6079
lfingers 7.12502
lthumb 23.0086 69.2546
rfemur 11.3859 2.28677 25.6526
rtibia 20.1883
rfoot -6.4036 -13.6278
rtoes -1.05748
lfemur -28.4796 -1.86141 -20.9329
ltibia 24.3461
lfoot -8.1318 -7.9702
ltoes 16.0237
